<?xml version="1.0" encoding="UTF-8"?>
<svg id="Layer_2" data-name="Layer 2" xmlns="http://www.w3.org/2000/svg" xmlns:xlink="http://www.w3.org/1999/xlink" viewBox="0 0 58.44 58.44">
  <defs>
    <style>
      .cls-1 {
        fill: none;
      }

      .cls-2 {
        fill: #fff;
      }

      .cls-3 {
        fill: #1c3063;
      }

      .cls-4 {
        clip-path: url(#clippath);
      }
    </style>
    <clipPath id="clippath">
      <rect class="cls-1" width="58.44" height="58.44"/>
    </clipPath>
  </defs>
  <g id="Layer_1-2" data-name="Layer 1">
    <rect class="cls-3" width="58.44" height="58.44"/>
    <g class="cls-4">
      <path class="cls-2" d="M38.66,28.86c-1.1-1.64-2.65-2.81-4.65-3.52-.53-.17-1.07-.3-1.62-.38-.54-.09-1.1-.14-1.67-.16-.32-.02-.65-.03-.99-.03h-2.88c-.32.02-.64.03-.96.03h-1.9c-.32,0-.65,0-.97-.03h-1.92v.89h.09c.9.04,1.58.17,2.06.39.48.22.71.85.71,1.9v12.73c0,1.05-.23,1.68-.7,1.9-.36.17-.86.28-1.49.34-.47-.07-.86-.22-1.16-.45-.4-.3-.73-.77-1-1.4l-7.21-16.62h-1.06l-6.86,16.62c-.31.76-.69,1.26-1.16,1.5-.47.24-1.11.37-1.93.39v.89h6.58v-.89h-.83c-.08,0-.15,0-.23-.03-.32-.02-.62-.1-.9-.26-.28-.15-.42-.43-.42-.83,0-.13.02-.26.06-.39.04-.12.09-.25.14-.39l1.49-3.69h7.61l1.54,3.69c.08.15.14.31.19.49.05.17.07.34.07.52,0,.29-.11.49-.33.61-.22.12-.45.2-.7.24-.11.02-.22.03-.33.03h-.93v.89h16.39c2.82,0,5.11-.86,6.86-2.57,1.75-1.72,2.63-3.99,2.63-6.81,0-2.1-.55-3.97-1.64-5.61M7.76,36.19l3.09-7.64c.02-.06.04-.11.06-.17l.06-.17c.02-.06.04-.12.06-.19.02-.07.04-.13.06-.19.08.31.17.61.29.92.11.3.23.61.34.92.02.08.05.15.09.23.04.08.07.15.09.23l2.49,6.06h-6.61ZM35.46,40.29c-.98,1.71-2.73,2.56-5.25,2.56-1.34,0-2.23-.17-2.69-.52-.46-.34-.69-1.22-.69-2.63v-13.93c.17-.02.34-.03.52-.04.17,0,.34-.01.51-.01.15-.02.31-.03.49-.03h.51c2.8,0,4.85.77,6.13,2.32,1.29,1.54,1.93,3.68,1.93,6.41,0,2.21-.49,4.17-1.47,5.88"/>
      <path class="cls-2" d="M49.57,33.53c1.53.06,2.93.5,4.21,1.33,1.28.83,1.92,2.09,1.92,3.79s-.55,2.89-1.66,3.82c-1.11.92-2.43,1.39-3.98,1.39h-9.73v-.89h.09c.92-.04,1.61-.17,2.07-.39.47-.22.7-.85.7-1.9v-12.73c0-1.05-.24-1.68-.72-1.9-.48-.22-1.16-.35-2.06-.39h-.09v-.89h9.24c1.3,0,2.47.34,3.52,1.03,1.05.69,1.57,1.74,1.57,3.18,0,1.51-.52,2.59-1.56,3.26-1.04.67-2.22,1.1-3.53,1.29M46.06,34.1v6.58c0,.92.26,1.5.77,1.76.51.26,1.18.39,2,.39,1.37,0,2.32-.45,2.85-1.36.52-.91.79-1.97.79-3.19,0-2.1-.66-3.32-1.97-3.66-1.32-.34-2.79-.52-4.43-.52M46.06,33.18c1.47,0,2.75-.17,3.85-.51,1.1-.34,1.64-1.42,1.64-3.23,0-1.16-.22-2.07-.67-2.73-.45-.66-1.29-.99-2.53-.99h-2.29v7.47Z"/>
    </g>
  </g>
</svg>