<svg xmlns="http://www.w3.org/2000/svg" width="61" height="60" viewBox="0 0 61 60">
  <g id="Group_244" data-name="Group 244" transform="translate(0.313 -0.315)">
    <path id="Path_403" data-name="Path 403" d="M24.609,52.258v-20.8a5.656,5.656,0,0,1-1.834-1.784,4.536,4.536,0,0,1-.7-2.537,5.009,5.009,0,0,1,8.566-3.542,4.839,4.839,0,0,1,1.482,3.542,4.764,4.764,0,0,1-.7,2.588,5.119,5.119,0,0,1-1.834,1.759v20.8H24.559ZM9.788,45.35A26.218,26.218,0,0,1,4.11,37.21,24.216,24.216,0,0,1,2,27.137a23.885,23.885,0,0,1,1.985-9.8A25.095,25.095,0,0,1,17.349,3.975a24.312,24.312,0,0,1,9.8-1.985,24.312,24.312,0,0,1,9.8,1.985A25.095,25.095,0,0,1,50.309,17.339a24.312,24.312,0,0,1,1.985,9.8,24.961,24.961,0,0,1-2.11,10.124,25.257,25.257,0,0,1-5.677,8.114l-3.517-3.517a20.323,20.323,0,0,0,4.6-6.557,19.781,19.781,0,0,0,1.708-8.139,19.449,19.449,0,0,0-5.853-14.269A19.409,19.409,0,0,0,27.172,7.039,19.409,19.409,0,0,0,12.9,12.893,19.409,19.409,0,0,0,7.049,27.162a19.579,19.579,0,0,0,1.708,8.114,20.243,20.243,0,0,0,4.647,6.532L9.813,45.4ZM16.9,38.24a15.855,15.855,0,0,1-3.517-4.924,14.6,14.6,0,0,1-1.331-6.18,14.5,14.5,0,0,1,4.4-10.677,14.5,14.5,0,0,1,10.677-4.4A14.5,14.5,0,0,1,37.8,16.46a14.5,14.5,0,0,1,4.4,10.677,15.153,15.153,0,0,1-4.848,11.129l-3.592-3.592a10.4,10.4,0,0,0,2.487-3.391,9.988,9.988,0,0,0-2.06-11.254,9.678,9.678,0,0,0-7.109-2.964A10.121,10.121,0,0,0,17,27.137a9.643,9.643,0,0,0,.9,4.17,10.858,10.858,0,0,0,2.487,3.366L16.8,38.265Z" transform="translate(3.024 3.009)" fill="#fff"/>
    <rect id="Rectangle_58" data-name="Rectangle 58" width="61" height="60" transform="translate(-0.313 0.315)" fill="none"/>
  </g>
</svg>
