<svg xmlns="http://www.w3.org/2000/svg" width="60" height="60" viewBox="0 0 60 60">
  <g id="Group_242" data-name="Group 242" transform="translate(0 -0.291)">
    <path id="Path_399" data-name="Path 399" d="M14.049,29.634h20.1V24.609h-20.1Zm0,7.536h20.1V32.146h-20.1Zm0,7.536H26.609V39.682H14.049ZM9.024,52.243a4.839,4.839,0,0,1-3.542-1.482A4.839,4.839,0,0,1,4,47.219V7.024A4.839,4.839,0,0,1,5.482,3.482,4.839,4.839,0,0,1,9.024,2h20.1L44.194,17.073V47.219a5.061,5.061,0,0,1-5.024,5.024ZM26.609,19.585V7.024H9.024V47.219H39.17V19.585ZM9.024,7.024v0Z" transform="translate(6.049 3.024)" fill="#fff"/>
    <rect id="Rectangle_54" data-name="Rectangle 54" width="60" height="60" transform="translate(0 0.291)" fill="none"/>
  </g>
</svg>
