<?xml version="1.0" encoding="UTF-8"?>
<svg id="Layer_2" data-name="Layer 2" xmlns="http://www.w3.org/2000/svg" viewBox="0 0 82.46 55.4">
  <defs>
    <style>
      .cls-1 {
        fill: #083990;
      }

      .cls-2 {
        fill: #fff20a;
      }
    </style>
  </defs>
  <g id="Layer_1-2" data-name="Layer 1">
    <g>
      <rect class="cls-1" width="82.46" height="55.4"/>
      <polygon class="cls-2" points="42.09 8.16 44.95 8.16 42.66 9.88 43.52 12.74 41.23 11.02 39.01 12.74 39.87 9.88 37.58 8.16 40.37 8.16 41.23 5.37 42.09 8.16 42.09 8.16"/>
      <polygon class="cls-2" points="42.23 44.6 45.03 44.6 42.73 46.31 43.67 49.03 41.37 47.32 39.08 49.03 40.01 46.31 37.65 44.6 40.52 44.6 41.37 41.95 42.23 44.6 42.23 44.6"/>
      <polygon class="cls-2" points="51.25 42.16 54.04 42.16 51.75 43.88 52.68 46.6 50.39 44.95 48.1 46.6 49.03 43.88 46.67 42.16 49.53 42.16 50.39 39.51 51.25 42.16 51.25 42.16"/>
      <polygon class="cls-2" points="51.25 10.52 54.04 10.52 51.75 12.24 52.68 15.03 50.39 13.31 48.1 15.03 49.03 12.24 46.67 10.52 49.53 10.52 50.39 7.87 51.25 10.52 51.25 10.52"/>
      <polygon class="cls-2" points="57.91 17.25 60.77 17.25 58.48 18.97 59.34 21.69 57.05 20.04 54.83 21.69 55.69 18.97 53.4 17.25 56.19 17.25 57.05 14.6 57.91 17.25 57.91 17.25"/>
      <polygon class="cls-2" points="57.91 35.58 60.77 35.58 58.48 37.29 59.34 40.01 57.05 38.3 54.83 40.01 55.69 37.29 53.4 35.58 56.19 35.58 57.05 32.93 57.91 35.58 57.91 35.58"/>
      <polygon class="cls-2" points="60.42 26.27 63.28 26.27 60.99 27.99 61.85 30.71 59.56 29.06 57.34 30.71 58.2 27.99 55.91 26.27 58.7 26.27 59.56 23.62 60.42 26.27 60.42 26.27"/>
      <polygon class="cls-2" points="32.93 10.59 35.72 10.59 33.43 12.31 34.36 15.03 32.07 13.31 29.78 15.03 30.71 12.31 28.35 10.59 31.21 10.59 32.07 7.95 32.93 10.59 32.93 10.59"/>
      <polygon class="cls-2" points="26.41 17.25 29.28 17.25 26.99 18.97 27.85 21.69 25.55 20.04 23.26 21.69 24.19 18.97 21.83 17.25 24.7 17.25 25.55 14.6 26.41 17.25 26.41 17.25"/>
      <polygon class="cls-2" points="23.98 26.27 26.84 26.27 24.55 27.99 25.41 30.71 23.12 29.06 20.83 30.71 21.76 27.99 19.47 26.27 22.26 26.27 23.12 23.62 23.98 26.27 23.98 26.27"/>
      <polygon class="cls-2" points="26.41 35.58 29.28 35.58 26.99 37.29 27.85 40.01 25.55 38.37 23.26 40.01 24.19 37.29 21.83 35.58 24.7 35.58 25.55 32.93 26.41 35.58 26.41 35.58"/>
      <polygon class="cls-2" points="33 42.16 35.86 42.16 33.57 43.88 34.43 46.6 32.14 44.95 29.85 46.6 30.78 43.88 28.49 42.16 31.28 42.16 32.14 39.51 33 42.16 33 42.16"/>
    </g>
  </g>
</svg>