<svg id="Layer_1" data-name="Layer 1" xmlns="http://www.w3.org/2000/svg" width="283.5" height="33.507" viewBox="0 0 283.5 33.507">
  <path id="Path_347" data-name="Path 347" d="M23.22,9.741c0-1.03,2.029-3,4.926-2.962,7.987,0,10.885,15.684,12.592,22.963a.209.209,0,0,1-.13.226,17.56,17.56,0,0,1-3.64.322,23.5,23.5,0,0,1-4.057-.322.2.2,0,0,1-.192-.161c-.192-1.236-.389-2.474-.635-3.7-1.044-5.228-2.677-10.758-4.737-13.591-1.809-2.486-4.128-2.407-4.128-2.773Z" transform="translate(-16.669 -4.866)" fill="#37c6f4"/>
  <path id="Path_348" data-name="Path 348" d="M103.514,54.936a15.1,15.1,0,0,1-2.931.322,18.284,18.284,0,0,1-3.219-.322.2.2,0,0,1-.161-.192V44.633h-.1a5.328,5.328,0,0,1-4.9,2.771c-4.057,0-6.311-3.961-6.311-8.278S88.154,30.3,92.372,30.3a5.088,5.088,0,0,1,4.734,2.737h.1l.322-2.062a.2.2,0,0,1,.161-.192,15.806,15.806,0,0,1,3-.257,14.457,14.457,0,0,1,2.835.257.2.2,0,0,1,.161.192V54.742a.2.2,0,0,1-.161.192Zm-6.089-16.2c0-2.35-.838-4.252-2.48-4.252s-2.449,1.9-2.449,4.252.838,4.218,2.449,4.218S97.425,41.055,97.425,38.736Z" transform="translate(-61.664 -21.751)" fill="#37c6f4"/>
  <path id="Path_349" data-name="Path 349" d="M172.2,40.774c0,1.738.355,2.511,1.224,3.092.226.161.291.226.291.482a4.178,4.178,0,0,1-4.057,3.027,3.557,3.557,0,0,1-3.671-2.867,5.2,5.2,0,0,1-.13-.677l-.1-.031a5.7,5.7,0,0,1-5.347,3.544c-2.48,0-4.478-1.515-4.478-4.765V36.751a3.084,3.084,0,0,0-1.385-3,.5.5,0,0,1-.291-.516,4.183,4.183,0,0,1,4.026-3.058,3.836,3.836,0,0,1,4.156,4.026v6.859c0,1.289.516,1.9,1.16,1.9.934,0,2.093-1.256,2.093-3.64v-8.4a.233.233,0,0,1,.13-.192,16.884,16.884,0,0,1,3.219-.322,16.121,16.121,0,0,1,3.092.291.242.242,0,0,1,.1.192c-.031.1-.031,7.953-.031,9.886Z" transform="translate(-110.737 -21.665)" fill="#37c6f4"/>
  <path id="Path_350" data-name="Path 350" d="M244.722,43.938c.226.161.291.226.291.482,0,1.16-1.8,3-4.057,3A3.731,3.731,0,0,1,236.9,44.1h-.1a5.352,5.352,0,0,1-4.991,3.284c-4.057,0-6.311-3.961-6.311-8.278s2.254-8.825,6.472-8.825a5.088,5.088,0,0,1,4.734,2.737h.1l.322-2.062a.2.2,0,0,1,.161-.192,15.456,15.456,0,0,1,2.962-.257,16.946,16.946,0,0,1,3.058.257.2.2,0,0,1,.161.192s-.1,7.666-.1,9.855c0,1.772.482,2.545,1.351,3.123Zm-7.7-5.217c0-2.35-.838-4.252-2.48-4.252s-2.449,1.9-2.449,4.252.838,4.218,2.449,4.218S237.025,41.041,237.025,38.722Z" transform="translate(-161.878 -21.737)" fill="#37c6f4"/>
  <path id="Path_351" data-name="Path 351" d="M304.919,13.778v3.479a36.307,36.307,0,0,0,7.118-.387c.257,0,.482.291.482.934a3.912,3.912,0,0,1-4.057,4.091,17.6,17.6,0,0,1-3.544-.355v8.213a.2.2,0,0,1-.161.192,16.374,16.374,0,0,1-3.414.322A18.883,18.883,0,0,1,298,29.945a.171.171,0,0,1-.13-.161c.065-5.733.065-15.492.065-15.653,0-3.544-1.45-3.51-1.45-4.218,0-.9,2-2.9,6.763-2.833,2.35.031,4.734.065,6.441.1a15.374,15.374,0,0,0,3.606-.516c.482,0,1.416.934,1.416,3.058,0,2.254-1.385,4.187-4.991,4.187-1.933,0-4.8-.13-4.8-.13Z" transform="translate(-212.832 -4.781)" fill="#1e1d57"/>
  <path id="Path_352" data-name="Path 352" d="M370.831,42.033c0,1.515-2.35,5.282-7.279,5.282-5.411,0-9.082-3.318-9.082-8.535s3.51-8.6,9.147-8.6c5.217,0,7.536,2.962,7.536,5.313,0,3.93-4.026,5.121-6.893,5.121a10.5,10.5,0,0,1-3.253-.387c.257,1.837,2.285,2.835,4.218,2.835,3.284,0,4.734-1.481,5.313-1.481.257,0,.291.291.291.451ZM360.815,37.49s.355,0,.742.031c2.319,0,3.445-1.289,3.445-2.384,0-.869-.547-1.546-1.738-1.546-1.611,0-2.48,1.837-2.449,3.9Z" transform="translate(-254.461 -21.665)" fill="#1e1d57"/>
  <path id="Path_353" data-name="Path 353" d="M435.936,23.874c.226.161.291.226.291.482,0,1.16-1.8,3-4.057,3a3.642,3.642,0,0,1-3.961-3.318h-.1a5.352,5.352,0,0,1-4.991,3.284c-4.057,0-6.311-3.961-6.311-8.278s2.254-8.825,6.472-8.825a5.088,5.088,0,0,1,4.734,2.737h.1V2.843a.2.2,0,0,1,.161-.192,18.338,18.338,0,0,1,3.219-.322,15.441,15.441,0,0,1,2.962.322.2.2,0,0,1,.161.192s-.031,15.715-.031,17.907C434.585,22.523,435.067,23.3,435.936,23.874Zm-7.6-5.217c0-2.35-.838-4.252-2.48-4.252s-2.449,1.9-2.449,4.252.838,4.218,2.449,4.218S428.335,20.976,428.335,18.657Z" transform="translate(-299.212 -1.673)" fill="#1e1d57"/>
  <path id="Path_354" data-name="Path 354" d="M11.565,53.45H5.11A5.114,5.114,0,0,0,0,58.641a5.026,5.026,0,0,0,5.11,5.146,5.13,5.13,0,0,0,5.234-5.146,6.322,6.322,0,0,1,1.493-4.557A.375.375,0,0,0,11.565,53.45Z" transform="translate(0 -38.37)" fill="#37c6f4"/>
  <g id="Group_235" data-name="Group 235" transform="translate(155.201 0.395)">
    <path id="Path_355" data-name="Path 355" d="M550.1,1.92H551.4l2.226,8.571h.059l2.254-8.571h1.411l2.285,8.571h.042l2.226-8.571h1.3L560.38,12.21h-1.354L556.7,3.666h-.087l-2.328,8.543h-1.368L550.09,1.92Z" transform="translate(-550.09 -1.773)" fill="#1e1d57"/>
    <path id="Path_356" data-name="Path 356" d="M604.266,19.263h-.787a1,1,0,0,1-.829-.364,1.97,1.97,0,0,1-.3-1.193l.161.042a2.489,2.489,0,0,1-.908,1.208,2.861,2.861,0,0,1-1.7.451,3.484,3.484,0,0,1-1.391-.248,1.811,1.811,0,0,1-.872-.742,2.38,2.38,0,0,1-.3-1.253,2.163,2.163,0,0,1,.217-1.01,1.768,1.768,0,0,1,.6-.669,2.814,2.814,0,0,1,.894-.378,4.587,4.587,0,0,1,1.078-.124h2.226v-.7a1.477,1.477,0,0,0-.415-1.148,1.972,1.972,0,0,0-1.346-.378,2.137,2.137,0,0,0-1.253.3,1.29,1.29,0,0,0-.511.9h-1.208a2.291,2.291,0,0,1,.451-1.2,2.4,2.4,0,0,1,1.033-.75,4.093,4.093,0,0,1,1.529-.262,4.486,4.486,0,0,1,1.092.13,2.576,2.576,0,0,1,.931.437,2.122,2.122,0,0,1,.646.815,2.951,2.951,0,0,1,.24,1.267v3.826h.714v1.033Zm-5.747-2.093a1.127,1.127,0,0,0,.378.931,1.807,1.807,0,0,0,1.148.3,2.582,2.582,0,0,0,1.7-.511,1.664,1.664,0,0,0,.618-1.354v-.626h-2.212a1.94,1.94,0,0,0-1.2.319,1.137,1.137,0,0,0-.429.931Z" transform="translate(-584.009 -8.83)" fill="#1e1d57"/>
    <path id="Path_357" data-name="Path 357" d="M627.127,7.766H625.44v5.313H627.1V14.1h-.99a2.3,2.3,0,0,1-1.374-.355,1.557,1.557,0,0,1-.488-1.332V7.766H622.98V6.748h1.267V4.55h1.193v2.2h1.687Z" transform="translate(-602.415 -3.661)" fill="#1e1d57"/>
    <path id="Path_358" data-name="Path 358" d="M640.646,15.067h4.949a2.567,2.567,0,0,0-.53-1.718,1.978,1.978,0,0,0-1.563-.581,2,2,0,0,0-1.7.705,3.411,3.411,0,0,0-.539,2.088,3.628,3.628,0,0,0,.53,2.133,2.106,2.106,0,0,0,1.811.719,2.225,2.225,0,0,0,1.253-.276,1.393,1.393,0,0,0,.539-.742h1.267a2.527,2.527,0,0,1-1.521,1.761,3.943,3.943,0,0,1-1.535.262,3.353,3.353,0,0,1-2.641-1,4.107,4.107,0,0,1-.894-2.824,4.131,4.131,0,0,1,.894-2.838,3.243,3.243,0,0,1,2.539-.99,3.591,3.591,0,0,1,1.645.378,2.818,2.818,0,0,1,1.193,1.208,4.657,4.657,0,0,1,.451,2.226v.406h-6.156l.014-.917Z" transform="translate(-614.683 -8.837)" fill="#1e1d57"/>
    <path id="Path_359" data-name="Path 359" d="M670.373,19.687H669.18V12.34h1.193v1.3a2.17,2.17,0,0,1,.734-.959,2.006,2.006,0,0,1,1.185-.336h.655v1.019h-.815a1.677,1.677,0,0,0-1.309.494,2.132,2.132,0,0,0-.451,1.484v4.351Z" transform="translate(-635.58 -9.253)" fill="#1e1d57"/>
    <path id="Path_360" data-name="Path 360" d="M698.37,1.92h3.493a4.462,4.462,0,0,1,2.088.415,2.535,2.535,0,0,1,1.129,1.134,3.793,3.793,0,0,1,.35,1.682,3.8,3.8,0,0,1-.35,1.673,2.567,2.567,0,0,1-1.12,1.165,4.3,4.3,0,0,1-2.065.423h-2.271v3.8H698.37Zm3.465,5.414a3.237,3.237,0,0,0,1.47-.268,1.445,1.445,0,0,0,.7-.756,3.176,3.176,0,0,0,.189-1.157A3.213,3.213,0,0,0,704,3.988a1.373,1.373,0,0,0-.7-.734,3.46,3.46,0,0,0-1.5-.254h-2.184V7.337h2.212Z" transform="translate(-656.535 -1.773)" fill="#1e1d57"/>
    <path id="Path_361" data-name="Path 361" d="M733.048,12.34h1.193v7.35h-1.193V18.57a3.1,3.1,0,0,1-.866.908,2.443,2.443,0,0,1-1.405.355,2.627,2.627,0,0,1-1.907-.677,3.016,3.016,0,0,1-.7-2.235V12.34h1.193l-.014,4.54a2,2,0,0,0,.451,1.484,1.771,1.771,0,0,0,1.281.437,2.3,2.3,0,0,0,1.033-.217,1.542,1.542,0,0,0,.683-.691,2.669,2.669,0,0,0,.248-1.23V12.34Z" transform="translate(-677.927 -9.253)" fill="#1e1d57"/>
    <path id="Path_362" data-name="Path 362" d="M757.593,1.4V11.833H756.4V1.4Zm2.46,10.58a2.656,2.656,0,0,1-1.631-.48,2.838,2.838,0,0,1-.954-1.34,5.807,5.807,0,0,1-.313-1.995,5.891,5.891,0,0,1,.313-2.009,2.864,2.864,0,0,1,.954-1.346,2.618,2.618,0,0,1,1.631-.488,3.214,3.214,0,0,1,1.7.429,2.741,2.741,0,0,1,1.083,1.281,5.278,5.278,0,0,1,.378,2.133,4.274,4.274,0,0,1-.83,2.838A2.894,2.894,0,0,1,760.054,11.98Zm-.307-1.019a2.022,2.022,0,0,0,1.718-.728,3.35,3.35,0,0,0,.553-2.065,3.4,3.4,0,0,0-.553-2.082,2.022,2.022,0,0,0-1.718-.728,1.83,1.83,0,0,0-1.631.728,3.524,3.524,0,0,0-.525,2.082,3.467,3.467,0,0,0,.525,2.065A1.873,1.873,0,0,0,759.746,10.962Z" transform="translate(-698.192 -1.4)" fill="#1e1d57"/>
    <path id="Path_363" data-name="Path 363" d="M787.253,11.833H786.06V1.4h1.193Z" transform="translate(-719.484 -1.4)" fill="#1e1d57"/>
    <path id="Path_364" data-name="Path 364" d="M796.74,1.4h1.354V2.825H796.74Zm1.281,3.087v7.35h-1.193V4.487Z" transform="translate(-727.151 -1.4)" fill="#1e1d57"/>
    <path id="Path_365" data-name="Path 365" d="M810.121,19.432a3.343,3.343,0,0,1-2.649-1,4.163,4.163,0,0,1-.872-2.83,4.072,4.072,0,0,1,.9-2.83,3.318,3.318,0,0,1,2.59-1,3.581,3.581,0,0,1,1.512.3,2.824,2.824,0,0,1,1.064.821,2.435,2.435,0,0,1,.494,1.222h-1.208a1.544,1.544,0,0,0-.5-.94,1.988,1.988,0,0,0-1.346-.37,2.057,2.057,0,0,0-1.775.734,3.438,3.438,0,0,0-.539,2.06,3.439,3.439,0,0,0,.539,2.06,2.049,2.049,0,0,0,1.775.734,2.271,2.271,0,0,0,1.323-.313,1.325,1.325,0,0,0,.525-.94h1.236a2.48,2.48,0,0,1-1.49,1.978,3.749,3.749,0,0,1-1.58.3Z" transform="translate(-734.229 -8.851)" fill="#1e1d57"/>
    <path id="Path_366" data-name="Path 366" d="M838.781,21.227H834.56V20.18h4.221Z" transform="translate(-754.3 -14.881)" fill="#1e1d57"/>
    <path id="Path_367" data-name="Path 367" d="M855.87,1.92h3.493a4.461,4.461,0,0,1,2.088.415,2.534,2.534,0,0,1,1.129,1.134,3.792,3.792,0,0,1,.35,1.682,3.8,3.8,0,0,1-.35,1.673,2.566,2.566,0,0,1-1.12,1.165,4.3,4.3,0,0,1-2.065.423h-2.271v3.8H855.87Zm3.462,5.414a3.236,3.236,0,0,0,1.47-.268,1.444,1.444,0,0,0,.7-.756,3.176,3.176,0,0,0,.189-1.157,3.213,3.213,0,0,0-.189-1.165,1.373,1.373,0,0,0-.7-.734A3.46,3.46,0,0,0,859.3,3H857.12V7.337h2.212Z" transform="translate(-769.598 -1.773)" fill="#1e1d57"/>
    <path id="Path_368" data-name="Path 368" d="M886.943,19.687H885.75V12.34h1.193v1.3a2.17,2.17,0,0,1,.734-.959,2.006,2.006,0,0,1,1.185-.336h.655v1.019H888.7a1.677,1.677,0,0,0-1.309.494,2.132,2.132,0,0,0-.451,1.484v4.351Z" transform="translate(-791.048 -9.253)" fill="#1e1d57"/>
    <path id="Path_369" data-name="Path 369" d="M903.23,1.4h1.354V2.825H903.23Zm1.281,3.087v7.35h-1.193V4.487Z" transform="translate(-803.596 -1.4)" fill="#1e1d57"/>
    <path id="Path_370" data-name="Path 370" d="M916.1,19.68h-1.253l-2.807-7.35h1.236l2.153,6.083h.087l2.17-6.083h1.236L916.1,19.68Z" transform="translate(-809.92 -9.246)" fill="#1e1d57"/>
    <path id="Path_371" data-name="Path 371" d="M945.2,19.263h-.787a1,1,0,0,1-.83-.364,1.969,1.969,0,0,1-.3-1.193l.161.042a2.488,2.488,0,0,1-.908,1.208,2.861,2.861,0,0,1-1.7.451,3.483,3.483,0,0,1-1.391-.248,1.811,1.811,0,0,1-.872-.742,2.381,2.381,0,0,1-.3-1.253,2.165,2.165,0,0,1,.217-1.01,1.768,1.768,0,0,1,.6-.669,2.813,2.813,0,0,1,.894-.378,4.587,4.587,0,0,1,1.078-.124h2.226v-.7a1.477,1.477,0,0,0-.415-1.148,1.972,1.972,0,0,0-1.346-.378,2.137,2.137,0,0,0-1.253.3,1.289,1.289,0,0,0-.511.9h-1.208a2.29,2.29,0,0,1,.451-1.2,2.4,2.4,0,0,1,1.033-.75,4.093,4.093,0,0,1,1.529-.262,4.485,4.485,0,0,1,1.092.13,2.575,2.575,0,0,1,.931.437,2.122,2.122,0,0,1,.646.815,2.95,2.95,0,0,1,.24,1.267v3.826h.714v1.033Zm-5.75-2.093a1.127,1.127,0,0,0,.378.931,1.807,1.807,0,0,0,1.148.3,2.582,2.582,0,0,0,1.7-.511,1.664,1.664,0,0,0,.618-1.354v-.626h-2.212a1.94,1.94,0,0,0-1.2.319,1.137,1.137,0,0,0-.429.931Z" transform="translate(-828.75 -8.83)" fill="#1e1d57"/>
    <path id="Path_372" data-name="Path 372" d="M968.047,7.766H966.36v5.313h1.659V14.1h-.99a2.3,2.3,0,0,1-1.374-.355,1.557,1.557,0,0,1-.488-1.332V7.766H963.9V6.748h1.267V4.55h1.193v2.2h1.687Z" transform="translate(-847.149 -3.661)" fill="#1e1d57"/>
    <path id="Path_373" data-name="Path 373" d="M981.575,15.067h4.949a2.567,2.567,0,0,0-.53-1.718,1.978,1.978,0,0,0-1.563-.581,2,2,0,0,0-1.7.705,3.411,3.411,0,0,0-.539,2.088,3.628,3.628,0,0,0,.53,2.133,2.106,2.106,0,0,0,1.811.719,2.226,2.226,0,0,0,1.253-.276,1.393,1.393,0,0,0,.539-.742h1.267a2.527,2.527,0,0,1-1.521,1.761,3.943,3.943,0,0,1-1.535.262,3.353,3.353,0,0,1-2.641-1A4.107,4.107,0,0,1,981,15.589a4.131,4.131,0,0,1,.894-2.838,3.243,3.243,0,0,1,2.539-.99,3.59,3.59,0,0,1,1.645.378,2.818,2.818,0,0,1,1.193,1.208,4.658,4.658,0,0,1,.451,2.226v.406h-6.156l.014-.917Z" transform="translate(-859.424 -8.837)" fill="#1e1d57"/>
    <path id="Path_374" data-name="Path 374" d="M553.31,52.26H556.8a4.461,4.461,0,0,1,2.088.415,2.534,2.534,0,0,1,1.129,1.134,4.2,4.2,0,0,1,0,3.355,2.567,2.567,0,0,1-1.12,1.165,4.3,4.3,0,0,1-2.065.423h-2.271v3.8H553.31V52.26Zm3.465,5.414a3.237,3.237,0,0,0,1.47-.268,1.445,1.445,0,0,0,.7-.756,3.176,3.176,0,0,0,.189-1.157,3.213,3.213,0,0,0-.189-1.165,1.373,1.373,0,0,0-.7-.734,3.461,3.461,0,0,0-1.5-.254h-2.184v4.336h2.212Z" transform="translate(-552.402 -37.91)" fill="#1e1d57"/>
    <path id="Path_375" data-name="Path 375" d="M588.417,69.613h-.787a1,1,0,0,1-.829-.364,1.969,1.969,0,0,1-.3-1.193l.161.042a2.489,2.489,0,0,1-.909,1.208,2.861,2.861,0,0,1-1.7.451,3.483,3.483,0,0,1-1.391-.248,1.811,1.811,0,0,1-.872-.742,2.381,2.381,0,0,1-.3-1.253,2.163,2.163,0,0,1,.217-1.01,1.767,1.767,0,0,1,.6-.669,2.813,2.813,0,0,1,.894-.378,4.586,4.586,0,0,1,1.078-.124h2.226v-.7a1.477,1.477,0,0,0-.415-1.148,1.972,1.972,0,0,0-1.346-.378,2.137,2.137,0,0,0-1.253.3,1.289,1.289,0,0,0-.511.9h-1.208a2.291,2.291,0,0,1,.451-1.2,2.4,2.4,0,0,1,1.033-.75,4.093,4.093,0,0,1,1.529-.262,4.485,4.485,0,0,1,1.092.13,2.576,2.576,0,0,1,.931.437,2.122,2.122,0,0,1,.646.815,2.951,2.951,0,0,1,.24,1.267v3.826h.714v1.033Zm-5.747-2.1a1.127,1.127,0,0,0,.378.931,1.807,1.807,0,0,0,1.148.3,2.582,2.582,0,0,0,1.7-.511,1.664,1.664,0,0,0,.618-1.354v-.626H584.3a1.94,1.94,0,0,0-1.2.319,1.137,1.137,0,0,0-.429.931Z" transform="translate(-572.631 -44.974)" fill="#1e1d57"/>
    <path id="Path_376" data-name="Path 376" d="M611.653,70.03H610.46V62.68h1.193v1.3a2.17,2.17,0,0,1,.734-.959,2.006,2.006,0,0,1,1.185-.336h.655V63.7h-.815a1.677,1.677,0,0,0-1.309.494,2.132,2.132,0,0,0-.451,1.484v4.351Z" transform="translate(-593.427 -45.391)" fill="#1e1d57"/>
    <path id="Path_377" data-name="Path 377" d="M630.937,58.114H629.25v5.313h1.659v1.019h-.99a2.3,2.3,0,0,1-1.374-.355,1.557,1.557,0,0,1-.488-1.332V58.116H626.79V57.1h1.267V54.9h1.193v2.2h1.687v1.019Z" transform="translate(-605.15 -39.806)" fill="#1e1d57"/>
    <path id="Path_378" data-name="Path 378" d="M646.9,69.62H645.71v-7.35H646.9v1.12a3.1,3.1,0,0,1,.866-.925,2.443,2.443,0,0,1,1.405-.355,2.627,2.627,0,0,1,1.907.677,3.016,3.016,0,0,1,.7,2.235v4.6h-1.208V65.067a2.055,2.055,0,0,0-.437-1.484,1.718,1.718,0,0,0-1.267-.437,2.358,2.358,0,0,0-1.041.217,1.5,1.5,0,0,0-.683.683,2.741,2.741,0,0,0-.24,1.253V69.62Z" transform="translate(-618.732 -44.981)" fill="#1e1d57"/>
    <path id="Path_379" data-name="Path 379" d="M673.066,65.407h4.949a2.567,2.567,0,0,0-.53-1.718,1.978,1.978,0,0,0-1.563-.581,2,2,0,0,0-1.7.705,3.41,3.41,0,0,0-.539,2.088,3.628,3.628,0,0,0,.53,2.133,2.106,2.106,0,0,0,1.811.719,2.226,2.226,0,0,0,1.253-.276,1.393,1.393,0,0,0,.539-.742h1.267a2.527,2.527,0,0,1-1.521,1.761,3.943,3.943,0,0,1-1.535.262,3.353,3.353,0,0,1-2.641-1,4.929,4.929,0,0,1,0-5.662,3.243,3.243,0,0,1,2.539-.99,3.59,3.59,0,0,1,1.645.378,2.818,2.818,0,0,1,1.193,1.208,4.658,4.658,0,0,1,.451,2.226v.406h-6.156l.014-.917Z" transform="translate(-637.956 -44.974)" fill="#1e1d57"/>
    <path id="Path_380" data-name="Path 380" d="M702.793,70.03H701.6V62.68h1.193v1.3a2.171,2.171,0,0,1,.734-.959,2.006,2.006,0,0,1,1.185-.336h.655V63.7h-.815a1.677,1.677,0,0,0-1.309.494,2.132,2.132,0,0,0-.451,1.484v4.351Z" transform="translate(-658.853 -45.391)" fill="#1e1d57"/>
    <path id="Path_381" data-name="Path 381" d="M722.537,64.213a1.158,1.158,0,0,0-.457-.821,1.985,1.985,0,0,0-1.114-.254,2.157,2.157,0,0,0-1.216.285.857.857,0,0,0-.415.734.819.819,0,0,0,.327.7,2.945,2.945,0,0,0,1,.392l1.165.291a3.191,3.191,0,0,1,1.529.742,1.77,1.77,0,0,1,.494,1.309,1.948,1.948,0,0,1-.742,1.563,4.359,4.359,0,0,1-4.336.079,2.276,2.276,0,0,1-.858-1.659h1.253a1.329,1.329,0,0,0,.437.88,1.985,1.985,0,0,0,1.222.285,2.473,2.473,0,0,0,1.405-.3.967.967,0,0,0,.11-1.5,2.391,2.391,0,0,0-.99-.443l-1.165-.291a3.283,3.283,0,0,1-1.512-.734,1.65,1.65,0,0,1-.511-1.244,1.862,1.862,0,0,1,.719-1.543,3.317,3.317,0,0,1,2.088-.567,3.169,3.169,0,0,1,1.958.53,2.1,2.1,0,0,1,.779,1.563Z" transform="translate(-670.562 -44.989)" fill="#1e1d57"/>
    <path id="Path_382" data-name="Path 382" d="M745.443,62.183H744.25V51.75h1.193v4.207a3.141,3.141,0,0,1,.858-.925,2.4,2.4,0,0,1,1.4-.355,2.635,2.635,0,0,1,1.927.677,2.989,2.989,0,0,1,.691,2.2v4.627h-1.208v-4.6a1.977,1.977,0,0,0-.437-1.447,1.756,1.756,0,0,0-1.281-.429,2.342,2.342,0,0,0-1.033.212,1.485,1.485,0,0,0-.677.677,2.628,2.628,0,0,0-.24,1.208v4.379Z" transform="translate(-689.47 -37.544)" fill="#1e1d57"/>
    <path id="Path_383" data-name="Path 383" d="M772.01,51.75h1.354v1.425H772.01Zm1.281,3.084v7.35H772.1v-7.35h1.193Z" transform="translate(-709.398 -37.544)" fill="#1e1d57"/>
    <path id="Path_384" data-name="Path 384" d="M784.613,62.307V72.6H783.42V62.307Zm2.443,7.494a2.659,2.659,0,0,1-1.622-.48,2.764,2.764,0,0,1-.954-1.34,6.7,6.7,0,0,1,0-4,2.754,2.754,0,0,1,.954-1.346,2.659,2.659,0,0,1,1.622-.48,3.244,3.244,0,0,1,1.71.437,2.758,2.758,0,0,1,1.078,1.287,5.251,5.251,0,0,1,.37,2.1,4.255,4.255,0,0,1-.829,2.844,2.9,2.9,0,0,1-2.328.968Zm-.291-1.033a2.005,2.005,0,0,0,1.7-.719,4.112,4.112,0,0,0,0-4.119,1.99,1.99,0,0,0-1.7-.734,1.839,1.839,0,0,0-1.631.734,4.3,4.3,0,0,0,0,4.119A1.881,1.881,0,0,0,786.766,68.768Z" transform="translate(-717.589 -45.017)" fill="#1e1d57"/>
    <path id="Path_385" data-name="Path 385" d="M815.957,64.213a1.158,1.158,0,0,0-.457-.821,1.985,1.985,0,0,0-1.115-.254,2.157,2.157,0,0,0-1.216.285.857.857,0,0,0-.415.734.819.819,0,0,0,.327.7,2.945,2.945,0,0,0,1,.392l1.165.291a3.191,3.191,0,0,1,1.529.742,1.77,1.77,0,0,1,.494,1.309,1.948,1.948,0,0,1-.742,1.563,4.358,4.358,0,0,1-4.336.079,2.276,2.276,0,0,1-.858-1.659h1.253a1.329,1.329,0,0,0,.437.88,1.985,1.985,0,0,0,1.222.285,2.473,2.473,0,0,0,1.405-.3.967.967,0,0,0,.11-1.5,2.392,2.392,0,0,0-.99-.443l-1.165-.291a3.283,3.283,0,0,1-1.512-.734,1.65,1.65,0,0,1-.511-1.244,1.862,1.862,0,0,1,.719-1.543,3.316,3.316,0,0,1,2.088-.567,3.17,3.17,0,0,1,1.958.53,2.1,2.1,0,0,1,.779,1.563Z" transform="translate(-737.625 -44.989)" fill="#1e1d57"/>
    <path id="Path_386" data-name="Path 386" d="M851.25,52.26h2.009v4.277H857.7V52.26h2.009V62.55H857.7V58.213h-4.438V62.55H851.25V52.26Z" transform="translate(-766.282 -37.91)" fill="#1e1d57"/>
    <path id="Path_387" data-name="Path 387" d="M892.408,61.953h1.949v7.553h-1.949l.014-.889a2.039,2.039,0,0,1-.793.787,2.522,2.522,0,0,1-1.171.248,2.923,2.923,0,0,1-2.06-.714,3.071,3.071,0,0,1-.779-2.359V61.953h1.95v4.641a1.708,1.708,0,0,0,.327,1.171,1.267,1.267,0,0,0,.982.355,1.783,1.783,0,0,0,.858-.181,1.142,1.142,0,0,0,.5-.561,2.447,2.447,0,0,0,.166-.99V61.95Z" transform="translate(-792.39 -44.867)" fill="#1e1d57"/>
    <path id="Path_388" data-name="Path 388" d="M919.6,51.64V62.1h-1.95V51.64Zm2.387,10.608a2.947,2.947,0,0,1-1.811-.516,2.867,2.867,0,0,1-1-1.4,6.054,6.054,0,0,1-.3-1.986,6.218,6.218,0,0,1,.3-2.009,2.732,2.732,0,0,1,2.807-1.935,3.227,3.227,0,0,1,1.6.406,2.918,2.918,0,0,1,1.165,1.272,5.048,5.048,0,0,1,.437,2.263,4.221,4.221,0,0,1-.889,2.917,2.973,2.973,0,0,1-2.313.982Zm-.6-1.512a1.646,1.646,0,0,0,1.391-.6,2.95,2.95,0,0,0,.457-1.806,2.98,2.98,0,0,0-.457-1.811,1.633,1.633,0,0,0-1.391-.6,1.536,1.536,0,0,0-1.346.6,3.051,3.051,0,0,0-.443,1.811,3.02,3.02,0,0,0,.443,1.806A1.569,1.569,0,0,0,921.391,60.736Z" transform="translate(-813.948 -37.465)" fill="#1e1d57"/>
  </g>
  <line id="Line_3" data-name="Line 3" y2="26.36" transform="translate(146.071)" fill="none" stroke="#1e1d57" stroke-width="1"/>
</svg>
