<?xml version="1.0" encoding="UTF-8"?>
<svg id="Layer_2" data-name="Layer 2" xmlns="http://www.w3.org/2000/svg" viewBox="0 0 104.43 40.24">
  <defs>
    <style>
      .cls-1 {
        fill: #184f70;
      }

      .cls-2 {
        fill: #1a1a1a;
      }
    </style>
  </defs>
  <g id="Layer_1-2" data-name="Layer 1">
    <path class="cls-2" d="M100.4,18.43c1.81-1.31,2.7-3.1,2.7-5.44v-.07c0-1.86-.57-3.37-1.75-4.63-1.46-1.56-3.71-2.38-6.52-2.38h-11.49v26.36h11.76c5.93,0,9.33-2.7,9.33-7.41v-.07c0-3.03-1.25-5.01-4.03-6.35M95.1,26.53h-5.88v-4.82h5.71c2.34,0,3.52.8,3.52,2.37v.07c0,1.58-1.13,2.37-3.35,2.37M89.22,16.23v-4.6h4.82c1.4,0,3.08.38,3.08,2.23v.07c0,1.53-1.15,2.3-3.42,2.3h-4.48Z"/>
    <path class="cls-2" d="M68.05,5.9h-9.71v26.37s9.71,0,9.71,0c3.7,0,7.05-1.35,9.44-3.8,2.36-2.42,3.65-5.75,3.65-9.38v-.07c0-7.6-5.51-13.11-13.09-13.11M74.88,19.08v.07c0,4.32-2.75,7.23-6.84,7.23h-3.69v-14.61h3.69c4.09,0,6.84,2.93,6.84,7.3"/>
    <path class="cls-2" d="M52.94,5.86c1.66,0,3.01,1.44,3.01,3.21v23.2h-6.02V5.86h3.01Z"/>
    <path class="cls-1" d="M23.08,23.78c-3.46,5.6,7.66,5.69,2.52,16.15-.15.03-.3.05-.45.08C13.14,41.77,1.99,33.47.23,21.49c-.83-5.68.6-11.17,3.61-15.56-.56,12.65,22.47,12.63,19.24,17.86M28,39.4c1.19-2.2,3.77-5.42,9.29-11.89,8.26-9.69-16.21-6.43-20.4-13.76C13.43,7.7,26.28,3.36,34.04,0c5.05,3.32,8.71,8.69,9.65,15.14,1.61,11.01-5.27,21.3-15.7,24.26M20.75,11.74c-.82.43.65,2.34,4.42,2.45,3.77.1-1.09-4.19-4.42-2.45M29.07,13.78c-2.83-.91-.97,1.34.38,1.49,1.34.15,1.62-.85-.38-1.49M32.02,15.99c-.94-.04-1.11.53.3.83,1.99.42.64-.79-.3-.83"/>
  </g>
</svg>