<?xml version="1.0" encoding="UTF-8"?>
<svg id="Layer_2" data-name="Layer 2" xmlns="http://www.w3.org/2000/svg" xmlns:xlink="http://www.w3.org/1999/xlink" viewBox="0 0 143.27 41.84">
  <defs>
    <style>
      .cls-1 {
        fill: none;
      }

      .cls-2 {
        fill: #002a4e;
      }

      .cls-3 {
        fill: #008ab1;
      }

      .cls-4 {
        fill: url(#linear-gradient-5);
      }

      .cls-5 {
        fill: url(#linear-gradient-6);
      }

      .cls-6 {
        fill: url(#linear-gradient-4);
      }

      .cls-7 {
        fill: url(#linear-gradient-3);
      }

      .cls-8 {
        fill: url(#linear-gradient-2);
      }

      .cls-9 {
        fill: url(#linear-gradient);
      }

      .cls-10 {
        clip-path: url(#clippath-1);
      }

      .cls-11 {
        clip-path: url(#clippath-3);
      }

      .cls-12 {
        clip-path: url(#clippath-4);
      }

      .cls-13 {
        clip-path: url(#clippath-2);
      }

      .cls-14 {
        clip-path: url(#clippath-6);
      }

      .cls-15 {
        clip-path: url(#clippath-5);
      }

      .cls-16 {
        fill: #662612;
      }

      .cls-17 {
        fill: #fff;
      }

      .cls-18 {
        fill: #00594c;
      }

      .cls-19 {
        clip-path: url(#clippath);
      }
    </style>
    <clipPath id="clippath">
      <path class="cls-1" d="M14.01,2.28l-.28,1.49c-1.33.25-1.71,1.46-1.71,1.86,0,.02,0,28.43,0,28.43h4.49v-11.03h1.5v-11c0-1.66-1.5-1.54-1.5-1.54v-4.85c0-.38-.42-1.62-1.59-1.85l-.34-1.78c-.19.09-.38.19-.57.29"/>
    </clipPath>
    <linearGradient id="linear-gradient" x1="-370.8" y1="766.8" x2="-369.81" y2="766.8" gradientTransform="translate(12500.14 -6020.72) rotate(-90) scale(16.28 -16.28)" gradientUnits="userSpaceOnUse">
      <stop offset="0" stop-color="#51195d"/>
      <stop offset=".52" stop-color="#51195d"/>
      <stop offset=".59" stop-color="#431b5a"/>
      <stop offset=".86" stop-color="#122651"/>
      <stop offset="1" stop-color="#002a4e"/>
    </linearGradient>
    <clipPath id="clippath-1">
      <path class="cls-1" d="M3.84,17.66c-.01.15-.02.3-.03.46v2.53c.18,2.69.91,5.25,2.09,7.55V10.52c-1.11,2.16-1.83,4.57-2.06,7.14"/>
    </clipPath>
    <linearGradient id="linear-gradient-2" x1="-354.06" y1="758.28" x2="-353.07" y2="758.28" gradientTransform="translate(8843.5 -4108.36) rotate(-90) scale(11.66 -11.66)" gradientUnits="userSpaceOnUse">
      <stop offset="0" stop-color="#51195d"/>
      <stop offset=".59" stop-color="#51195d"/>
      <stop offset=".65" stop-color="#431b5a"/>
      <stop offset=".88" stop-color="#122651"/>
      <stop offset="1" stop-color="#002a4e"/>
    </linearGradient>
    <clipPath id="clippath-2">
      <path class="cls-1" d="M7.03,8.59v21.54c.98,1.46,2.15,2.78,3.48,3.92h.46V4.29c-1.51,1.22-2.85,2.67-3.94,4.3"/>
    </clipPath>
    <linearGradient id="linear-gradient-3" x1="-347.04" y1="754.99" x2="-346.05" y2="754.99" gradientTransform="translate(7871.97 -3596.36) rotate(-90) scale(10.41 -10.41)" gradientUnits="userSpaceOnUse">
      <stop offset="0" stop-color="#51195d"/>
      <stop offset=".53" stop-color="#51195d"/>
      <stop offset=".58" stop-color="#431b5a"/>
      <stop offset=".77" stop-color="#122651"/>
      <stop offset=".86" stop-color="#002a4e"/>
      <stop offset="1" stop-color="#002a4e"/>
    </linearGradient>
    <clipPath id="clippath-3">
      <path class="cls-1" d="M34.56,30.2h4.59V8.51c-1.24-1.84-2.8-3.45-4.59-4.77v26.47Z"/>
    </clipPath>
    <linearGradient id="linear-gradient-4" x1="-349.69" y1="756.3" x2="-348.7" y2="756.3" gradientTransform="translate(8244.03 -3776.96) rotate(-90) scale(10.85 -10.85)" gradientUnits="userSpaceOnUse">
      <stop offset="0" stop-color="#51195d"/>
      <stop offset=".46" stop-color="#51195d"/>
      <stop offset=".52" stop-color="#431b5a"/>
      <stop offset=".75" stop-color="#122651"/>
      <stop offset=".86" stop-color="#002a4e"/>
      <stop offset="1" stop-color="#002a4e"/>
    </linearGradient>
    <clipPath id="clippath-4">
      <path class="cls-1" d="M40.38,26.51h.74c.67-1.7,1.12-3.53,1.29-5.44,0-.01,0-.03,0-.04v-3.36c-.22-2.52-.92-4.91-2.03-7.08v15.93Z"/>
    </clipPath>
    <linearGradient id="linear-gradient-5" x1="-315.03" y1="739.17" x2="-314.04" y2="739.17" gradientTransform="translate(5224.19 -2190.76) rotate(-90) scale(7.01 -7.01)" gradientUnits="userSpaceOnUse">
      <stop offset="0" stop-color="#51195d"/>
      <stop offset=".47" stop-color="#51195d"/>
      <stop offset=".53" stop-color="#431b5a"/>
      <stop offset=".75" stop-color="#122651"/>
      <stop offset=".86" stop-color="#002a4e"/>
      <stop offset="1" stop-color="#002a4e"/>
    </linearGradient>
    <clipPath id="clippath-5">
      <path class="cls-1" d="M19.27.38v31.11h6.26v-3.86h1.52v1.5h6.26V4.57h-1.78v-1.37h-2.7v1.37h-1.78v4.46h-1.52V.15c-.24-.03-.47-.05-.71-.08C24.25.02,23.67,0,23.1,0,21.8,0,20.52.13,19.27.38"/>
    </clipPath>
    <linearGradient id="linear-gradient-6" x1="-370.83" y1="766.56" x2="-369.83" y2="766.56" gradientTransform="translate(12514.34 -6025.02) rotate(-90) scale(16.29 -16.29)" gradientUnits="userSpaceOnUse">
      <stop offset="0" stop-color="#51195d"/>
      <stop offset=".48" stop-color="#51195d"/>
      <stop offset=".56" stop-color="#431b5a"/>
      <stop offset=".84" stop-color="#122651"/>
      <stop offset=".99" stop-color="#002a4e"/>
      <stop offset="1" stop-color="#002a4e"/>
    </linearGradient>
    <clipPath id="clippath-6">
      <path class="cls-1" d="M3.84,17.66c-.88,9.98,5.97,18.85,15.6,20.71h7.39c8.26-1.6,14.8-8.51,15.58-17.3C43.35,10.41,35.48,1.02,24.83.08,24.25.02,23.67,0,23.1,0,13.18,0,4.73,7.59,3.84,17.66"/>
    </clipPath>
  </defs>
  <g id="Layer_1-2" data-name="Layer 1">
    <g>
      <path class="cls-17" d="M42.41,21.06C43.35,10.41,35.48,1.02,24.82.08,14.17-.86,4.78,7.01,3.84,17.66c-.94,10.65,6.93,20.05,17.58,20.99,10.65.94,20.05-6.93,20.99-17.58"/>
      <g class="cls-19">
        <rect class="cls-9" x="12.02" y="1.99" width="5.99" height="32.06"/>
      </g>
      <g class="cls-10">
        <rect class="cls-8" x="3.8" y="10.52" width="2.09" height="17.68"/>
      </g>
      <g class="cls-13">
        <rect class="cls-7" x="7.03" y="4.29" width="3.94" height="29.76"/>
      </g>
      <g class="cls-11">
        <rect class="cls-6" x="34.56" y="3.74" width="4.59" height="26.47"/>
      </g>
      <g class="cls-12">
        <rect class="cls-4" x="40.38" y="10.58" width="2.03" height="15.93"/>
      </g>
      <g class="cls-15">
        <rect class="cls-5" x="19.27" y="0" width="14.04" height="31.49"/>
      </g>
      <g class="cls-14">
        <rect class="cls-17" x="16.23" y="20.27" width="27.52" height="6.25"/>
        <path class="cls-16" d="M39.78,27.33s-.04,0-.1-.02c-.07,0-.15-.05-.25-.12-.09-.09-.19-.2-.26-.37-.07-.16-.13-.35-.17-.56-.03-.21-.06-.44-.05-.69,0-.22.02-.52.08-.76.05-.25.14-.51.26-.74.12-.23.33-.4.49-.4-.02.01.13.03.16.05.02.04.04.04.08.08l.11.13.09.16c.1.23.17.48.2.73.05.25.06.5.06.73,0,.26,0,.46-.02.67-.02.21-.06.4-.12.56-.05.16-.14.28-.22.38-.09.07-.17.13-.24.13-.06.02-.09.02-.1.03M42.93,21.2v-.24s-.24,0-.24,0l-13.45.08-6.73.05-6.75.08-.02,8.05v.05h.05l10.96.03h.27s-.23-.15-.23-.15c-.44-.29-.66-.83-.81-1.34-.07-.26-.12-.53-.14-.8-.03-.28-.04-.54-.02-.82.02-.54.12-1.09.32-1.59.1-.25.23-.49.4-.68.17-.2.4-.33.63-.34.25.01.45.14.63.34.17.2.3.43.4.68.19.5.29,1.04.3,1.59.02.55-.04,1.09-.18,1.61-.15.51-.38,1.04-.8,1.3l-.41.26h.48s2.25,0,2.25,0h.18l-.03-.18c-.19-1.06-.18-2.17.05-3.22.12-.52.29-1.04.56-1.49.13-.22.29-.43.49-.59.18-.16.42-.26.63-.26.48,0,.86.41,1.12.85.26.45.43.97.54,1.49.11.52.17,1.06.17,1.6,0,.26,0,.55-.03.81-.02.27-.06.53-.11.8l-.04.24h.24s2.09,0,2.09,0h.52s-.38-.36-.38-.36c-.34-.33-.54-.84-.66-1.34-.06-.25-.1-.52-.12-.78-.02-.27-.02-.52,0-.8.03-.52.13-1.05.32-1.52.1-.24.22-.46.38-.64.16-.18.35-.29.53-.29.01,0,.15,0,.15.03.03,0,.07.03.12.05.09.05.17.13.25.21.15.18.28.4.37.64.19.48.28,1,.31,1.52,0,.26,0,.53-.01.79-.02.26-.06.52-.12.77-.12.5-.33,1-.66,1.31l-.5.46h.67s5.81,0,5.81,0h.27v-4.28c0-1.34-.01-2.67-.02-4.01"/>
        <rect class="cls-16" x="13.06" y="20.25" width="36.73" height="1.81"/>
        <path class="cls-17" d="M26.83,20.57h-9.18c-.77-.01-4.55,0-4.55,0l.06,1.48-.1-.1c1.53-.05,3.06-.09,4.59-.12,1.53-.04,3.06-.07,4.59-.09,3.06-.05,6.12-.08,9.18-.09,3.06,0,6.12.03,9.18.05,3.06.02,6.12.07,9.18.14l-.2.2.03-1.81.17.17M13.02,20.21h2.33c.77,0,1.53.02,2.3.01l4.59-.09,4.59-.04c1.53-.02,3.06-.02,4.59,0,1.53.01,12.24.01,13.77,0,1.53,0,3.06.02,4.59-.02h.17s0,.17,0,.17l.03,1.81v.2s-.2,0-.2,0c-3.06.07-6.12.12-9.18.14-3.06.02-6.12.06-9.18.05-3.06,0-6.12-.04-9.18-.09-1.53-.02-3.06-.05-4.59-.09-1.53-.03-3.06-.07-4.59-.12h-.1s0-.1,0-.1l.07-1.84Z"/>
        <path class="cls-3" d="M.1,22.09s10.61-5.6,21.92,1.37c8.97,5.53,18.49,2.3,20.67,0l-1.56,3.89-2.74,6.73-4.75,5.3-8.93.67-8.22-.81-6.85-2.14-3.62-3.79-3.64-6.28L.1,22.09Z"/>
        <path class="cls-17" d="M2.68,26.92v-.03c.64,1.02,1.27,2.05,1.91,3.08l1.91,3.08-.08-.1c1.25,1.22,2.48,2.46,3.71,3.7l-.29-.18c2.3.66,4.59,1.35,6.89,2.03l-.16-.03,4.11.38c1.37.13,2.74.25,4.11.39h-.14s8.93-.6,8.93-.6l-.5.25,4.81-5.25-.12.19,3.48-5.18.92-5.39.93.59c-.77.76-1.64,1.21-2.52,1.61-.89.39-1.81.69-2.74.92-1.86.46-3.78.65-5.69.58-1.91-.07-3.8-.4-5.61-.99-.91-.29-1.79-.65-2.64-1.07-.43-.2-.85-.44-1.27-.67l-1.38-.6c-.39-.24-.79-.47-1.2-.68-.4-.23-.82-.42-1.24-.61-.41-.2-.85-.36-1.27-.54-.44-.15-.86-.33-1.31-.46-.88-.29-1.82-.41-2.72-.6-.91-.16-1.83-.27-2.75-.34-1.85-.1-3.57.18-5.4.51-.91.16-1.92.53-2.7.94-.8.42-.8,3.48.02,5.07M.06,22.02c.84-.43,1.72-.76,2.61-1.06.89-.29,1.8-.53,2.72-.72,1.84-.38,3.73-.52,5.61-.46.94.04,1.88.13,2.81.28.93.16,1.85.35,2.76.63.46.12.9.29,1.35.44.44.18.89.33,1.32.53.43.19.87.38,1.28.6.43.21.84.43,1.25.67l1.22.69c.41.21.8.43,1.23.61.83.39,1.69.71,2.57.97,1.75.54,3.57.81,5.4.85,1.82.03,3.65-.18,5.41-.65.87-.24,1.73-.53,2.55-.91.8-.38,1.6-.84,2.15-1.41l1.98-2.07-1.05,2.67-4.2,10.66-.04.1-.08.09-4.69,5.36-.19.22-.31.03-8.92.75h-.07s-.08,0-.08,0c-1.37-.13-2.74-.28-4.11-.42l-4.11-.43h-.09s-.07-.03-.07-.03c-2.27-.75-4.55-1.48-6.82-2.25l-.18-.06-.11-.12c-1.18-1.29-2.37-2.57-3.53-3.87l-.06-.06-.02-.04-1.73-3.19c-.57-1.06-1.16-2.12-1.71-3.2v-.03c-.71-1.69-1.41-3.36-2.08-5.06l-.03-.07.06-.03Z"/>
        <path class="cls-18" d="M3.35,32.63l-.85-6.54.68-1.48s16.93,16.89,40.56.59l-.05,1.24-.96,6.01-3.91,4.29-3.77,1.69-9.14,3.2-14.87-4.09-7.69-4.92Z"/>
        <path class="cls-17" d="M4.24,33.19l6.84,4.3h-.02s14.9,3.97,14.9,3.97h-.11s9.11-3.27,9.11-3.27h-.02s3.76-1.71,3.76-1.71l-.1.07,3.88-4.32-.08.18.91-6.02v.04s.04-1.24.04-1.24l.62.34-2.31,1.53c-.8.46-1.58.96-2.4,1.39-.83.41-1.63.88-2.49,1.24l-1.27.57c-.43.18-.87.33-1.3.5-.86.35-1.76.6-2.64.88-.45.13-.9.23-1.35.35-.45.12-.9.23-1.36.3l-1.37.25-1.39.17c-.46.07-.93.08-1.39.11-.47.03-.93.06-1.4.05-.47,0-.94.02-1.4-.01l-1.4-.08-1.39-.15c-.46-.05-.92-.14-1.39-.22-.92-.17-1.84-.37-2.74-.62-.45-.11-.9-.26-1.34-.4-.45-.14-.89-.3-1.33-.46-.88-.32-1.74-.7-2.58-1.1-.84-.4-1.67-.85-2.48-1.33-.81-.47-1.59-.99-2.35-1.54-.77-.56-1.49-1.12-2.21-1.8l1.19-.21-.67,1.49.06-.41.9,6.53.09.66ZM2.48,32.06l-.72-5.87-.03-.22.09-.19.7-1.48.44-.94.75.73c.6.58,1.32,1.16,2.02,1.69.72.53,1.46,1.04,2.22,1.51.76.47,1.55.91,2.35,1.31.8.4,1.62.77,2.46,1.09.42.16.83.33,1.26.46.42.14.85.29,1.28.41.86.26,1.73.46,2.61.64.44.07.88.17,1.33.23l1.34.17,1.34.09c.45.04.9.02,1.35.03.45.02.9,0,1.35-.03.45-.03.9-.02,1.35-.08l1.34-.14,1.33-.22c.45-.06.89-.17,1.32-.27.44-.11.88-.19,1.32-.32.86-.26,1.74-.49,2.58-.82.42-.16.85-.3,1.27-.47l1.25-.53c.84-.33,1.64-.78,2.45-1.17.81-.41,1.58-.89,2.38-1.33l2.3-1.47.66-.42-.04.76-.06,1.24v.03s0,.02,0,.02l-1,6-.02.1-.07.07-3.95,4.26-.04.05-.05.02-3.78,1.66h-.01s0,0,0,0l-9.16,3.13-.06.02-.06-.02-14.84-4.2h0s0,0,0,0l-7.65-4.98-.88-.57Z"/>
        <path class="cls-17" d="M22.85,12.51c-.29,0-.55.12-.75.32-.2.2-.31.48-.3.76,0,.58.49,1.06,1.07,1.06.6,0,1.08-.49,1.07-1.08,0-.58-.49-1.06-1.07-1.06"/>
        <path class="cls-17" d="M22.84,11.98c.16,0,.32.03.47.07l-.73-3.32c-.19-.55.77-3.97.73-4.72-.04-.75-.53-.46-.53-.46-1.87,3.2-1.92,5.33-1.92,5.33l.71,3.75c.29-.39.75-.65,1.27-.66"/>
        <path class="cls-17" d="M32.39,16.98c-2.36-2.86-4.35-3.63-4.35-3.63l-3.78-.54c.12.22.2.48.21.75,0,.37-.12.72-.34.99l3.47.47c.58,0,3.46,2.09,4.18,2.31.72.22.61-.35.61-.35"/>
        <path class="cls-17" d="M21.26,13.6s0-.09.01-.13l-3.06,1.55c-.49.32-4.04.23-4.75.45-.72.22-.31.63-.31.63,3.56,1.03,5.64.54,5.64.54l3.35-1.64c-.51-.26-.87-.79-.88-1.4"/>
        <path class="cls-17" d="M24.51,31.33l-.88-16.34c-.22.12-.47.2-.74.2-.19,0-.37-.03-.55-.1l-.78,16.24c-.63,0-.29.03-1.47,0v2.43s2.77.87,5.98,0v-2.43s.42-.02-1.57,0"/>
      </g>
      <g>
        <path class="cls-2" d="M53.05,15.71h7.8c1.18,0,1.63-.77,1.63-1.74v-.63c0-1.11-.54-1.74-2.06-1.74h-7.37v4.12ZM48.03,7.52h13.68c4.77,0,5.92,2.4,5.92,5.61v1.4c0,2.44-1.06,5.25-4.61,5.25h-9.97v4.12h-5.02V7.52Z"/>
        <path class="cls-2" d="M75.36,15.71h7.8c1.18,0,1.63-.77,1.63-1.74v-.63c0-1.11-.54-1.74-2.06-1.74h-7.37v4.12ZM70.34,7.52h13.68c4.77,0,5.92,2.4,5.92,5.61v1.4c0,2.44-1.06,5.25-4.61,5.25h-9.97v4.12h-5.02V7.52Z"/>
      </g>
      <rect class="cls-2" x="92.92" y="7.52" width="5.02" height="16.37"/>
      <path class="cls-2" d="M108.95,17.47h6.42l-3.26-6.15-3.17,6.15ZM108.86,7.52h6.53l9,16.37h-5.58l-1.56-2.89h-10.17l-1.47,2.89h-5.61l8.86-16.37Z"/>
      <polygon class="cls-2" points="126.18 7.52 143.27 7.52 143.27 11.46 131.2 11.46 131.2 14.51 142.71 14.51 142.71 18.31 131.2 18.31 131.2 23.89 126.18 23.89 126.18 7.52"/>
      <polygon class="cls-2" points="47.81 33.3 47.81 27.79 50.48 27.79 50.48 28.66 48.82 28.66 48.82 29.98 50.05 29.98 50.21 30.87 48.82 30.87 48.82 32.43 50.56 32.43 50.56 33.3 47.81 33.3"/>
      <g>
        <path class="cls-2" d="M52.92,33.3v-2.75c0-.22-.1-.37-.31-.37s-.42.13-.61.31v2.81h-.93v-3.86h.76l.07.42c.28-.27.62-.5,1.03-.5.6,0,.91.34.91.94v3.01h-.93Z"/>
        <path class="cls-2" d="M56.08,31.4c-.7.14-.93.47-.93.83,0,.27.14.44.34.44s.39-.12.58-.31v-.96ZM56.24,33.3l-.06-.39c-.27.28-.58.47-.97.47-.53,0-.93-.35-.93-1.06,0-.9.7-1.33,1.8-1.5v-.18c0-.39-.17-.54-.5-.54-.28,0-.6.12-.94.31l-.12-.75c.39-.18.78-.3,1.29-.3.81,0,1.19.36,1.19,1.23v2.71h-.76Z"/>
        <path class="cls-2" d="M59.12,30.18c-.19,0-.39.14-.57.34v1.97c.14.06.28.09.4.09.46,0,.77-.37.77-1.26,0-.82-.27-1.13-.6-1.13M58.92,33.35c-.46,0-.9-.1-1.3-.24v-5.44l.93-.14v2.21c.21-.22.48-.38.85-.38.71,0,1.23.59,1.23,1.87,0,1.49-.7,2.12-1.7,2.12"/>
      </g>
      <polygon class="cls-2" points="61.18 27.67 61.18 33.3 62.1 33.3 62.1 27.53 61.18 27.67"/>
      <g>
        <path class="cls-2" d="M62.83,29.44h.93v3.86h-.93v-3.86ZM63.29,28.82c-.3,0-.54-.24-.54-.54s.24-.54.54-.54.54.24.54.54-.23.54-.54.54"/>
        <path class="cls-2" d="M66.28,33.3v-2.75c0-.22-.1-.37-.31-.37s-.42.13-.61.31v2.81h-.93v-3.86h.76l.07.42c.28-.27.62-.5,1.03-.5.6,0,.91.34.91.94v3.01h-.93Z"/>
        <path class="cls-2" d="M69.1,29.96c-.32,0-.5.29-.5.74s.18.73.5.73.5-.28.5-.73-.2-.74-.5-.74M68.65,33.06c-.18.18-.27.37-.27.56,0,.36.28.56.82.56.46,0,.78-.2.78-.49,0-.27-.18-.41-1.09-.58-.07,0-.16-.03-.23-.05h0s0,0,0,0ZM70.36,30.18c.06.15.1.33.1.52,0,.8-.61,1.33-1.37,1.33-.09,0-.17,0-.25-.02-.02.06-.03.11-.03.17,0,.1.09.15.34.21,1.29.22,1.68.47,1.68,1.13,0,.79-.8,1.25-1.73,1.25-.86,0-1.6-.31-1.6-.98,0-.37.22-.69.65-.94-.12-.1-.18-.22-.18-.38,0-.21.12-.41.38-.62-.38-.22-.64-.62-.64-1.14,0-.81.6-1.34,1.38-1.34.35,0,.67.12.92.33l.81-.3.12.75-.58.04Z"/>
      </g>
      <rect class="cls-2" x="72.95" y="27.78" width="1.02" height="5.52"/>
      <g>
        <path class="cls-2" d="M76.58,33.3v-2.75c0-.22-.1-.37-.31-.37s-.42.13-.61.31v2.81h-.93v-3.86h.76l.07.42c.28-.27.62-.5,1.03-.5.6,0,.91.34.91.94v3.01h-.93Z"/>
        <path class="cls-2" d="M79.67,28.37c-.3,0-.43.14-.43.47v.6h.62l.14.78h-.75v3.08h-.89v-3.08h-.48v-.78h.48v-.74c0-.76.45-1.1,1.1-1.1.21,0,.34.02.44.04l.13.76c-.1-.02-.22-.03-.35-.03"/>
        <path class="cls-2" d="M81.27,30.85v2.45h-.93v-3.86h.76l.09.57c.21-.33.54-.62.96-.65l.15.94c-.43.03-.82.26-1.03.55"/>
        <path class="cls-2" d="M84.2,31.4c-.7.14-.93.47-.93.83,0,.27.14.44.34.44s.39-.12.58-.31v-.96ZM84.36,33.3l-.06-.39c-.27.28-.58.47-.97.47-.53,0-.93-.35-.93-1.06,0-.9.7-1.33,1.8-1.5v-.18c0-.39-.17-.54-.5-.54-.28,0-.6.12-.94.31l-.12-.75c.39-.18.78-.3,1.29-.3.81,0,1.19.36,1.19,1.23v2.71h-.76Z"/>
        <path class="cls-2" d="M86.8,33.38c-.44,0-.9-.14-1.23-.34l.13-.8c.42.26.76.39,1.1.39.29,0,.45-.15.45-.35,0-.22-.18-.41-.63-.62-.61-.3-.98-.6-.98-1.22s.44-1.09,1.18-1.09c.42,0,.77.09,1.07.24l-.13.78c-.34-.18-.62-.29-.91-.29-.21,0-.36.11-.36.31s.16.36.58.56c.64.31,1.04.64,1.04,1.26,0,.67-.48,1.15-1.31,1.15"/>
        <path class="cls-2" d="M89.88,33.37c-.74,0-1.14-.26-1.14-1.1v-2.05h-.47v-.78h.47v-1.24l.9-.14v1.38h.66l.12.78h-.78v1.92c0,.27.1.42.4.42.1,0,.21,0,.28-.02l.12.77c-.13.03-.32.06-.56.06"/>
        <path class="cls-2" d="M91.82,30.85v2.45h-.93v-3.86h.76l.09.57c.21-.33.54-.62.96-.65l.15.94c-.43.03-.82.26-1.03.55"/>
        <path class="cls-2" d="M95.23,33.3l-.06-.42c-.28.26-.64.49-1.04.49-.58,0-.9-.34-.9-.94v-3.01h.92v2.76c0,.22.1.35.33.35.21,0,.41-.12.6-.3v-2.81h.92v3.86h-.76Z"/>
        <path class="cls-2" d="M98.06,33.38c-1,0-1.57-.74-1.57-2s.6-2.02,1.58-2.02c.46,0,.75.13.95.26l-.14.84c-.26-.2-.46-.28-.74-.28-.49,0-.74.47-.74,1.19s.27,1.21.8,1.21c.26,0,.43-.08.73-.29l.11.78c-.22.18-.54.31-.99.31"/>
        <path class="cls-2" d="M100.96,33.37c-.74,0-1.14-.26-1.14-1.1v-2.05h-.47v-.78h.47v-1.24l.9-.14v1.38h.66l.12.78h-.78v1.92c0,.27.1.42.4.42.1,0,.21,0,.28-.02l.12.77c-.13.03-.32.06-.56.06"/>
        <path class="cls-2" d="M103.97,33.3l-.06-.42c-.28.26-.64.49-1.04.49-.58,0-.9-.34-.9-.94v-3.01h.92v2.76c0,.22.1.35.33.35.21,0,.41-.12.6-.3v-2.81h.92v3.86h-.76Z"/>
        <path class="cls-2" d="M106.29,30.85v2.45h-.93v-3.86h.76l.09.57c.21-.33.54-.62.96-.65l.15.94c-.43.03-.82.26-1.03.55"/>
        <path class="cls-2" d="M108.37,31.02h1.09c-.02-.62-.2-.99-.53-.99-.3,0-.51.33-.56.99M108.37,31.63c.06.66.32,1.02.82,1.02.33,0,.68-.12,1.02-.36l.12.72c-.31.21-.77.38-1.27.38-1.05,0-1.62-.72-1.62-2.02,0-1.13.54-2.01,1.49-2.01s1.4.86,1.4,1.93c0,.06,0,.32,0,.34h-1.96Z"/>
      </g>
      <rect class="cls-2" x="112.45" y="27.78" width="1.02" height="5.52"/>
      <path class="cls-2" d="M116.08,33.3v-2.75c0-.22-.1-.37-.31-.37s-.42.13-.61.31v2.81h-.93v-3.86h.76l.07.42c.28-.27.62-.5,1.03-.5.6,0,.91.34.91.94v3.01h-.93Z"/>
      <polygon class="cls-2" points="119.4 33.32 118.37 33.32 117.32 29.5 118.28 29.38 118.92 32.27 119.52 29.44 120.45 29.44 119.4 33.32"/>
      <g>
        <path class="cls-2" d="M121.49,31.02h1.09c-.01-.62-.2-.99-.53-.99-.3,0-.51.33-.56.99M121.49,31.63c.06.66.32,1.02.82,1.02.33,0,.68-.12,1.02-.36l.12.72c-.31.21-.77.38-1.27.38-1.05,0-1.62-.72-1.62-2.02,0-1.13.54-2.01,1.49-2.01s1.4.86,1.4,1.93c0,.06,0,.32,0,.34h-1.96Z"/>
        <path class="cls-2" d="M125.03,33.38c-.44,0-.9-.14-1.23-.34l.13-.8c.42.26.76.39,1.1.39.29,0,.45-.15.45-.35,0-.22-.18-.41-.63-.62-.61-.3-.98-.6-.98-1.22s.44-1.09,1.18-1.09c.42,0,.77.09,1.07.24l-.13.78c-.34-.18-.62-.29-.91-.29-.21,0-.36.11-.36.31s.16.36.58.56c.64.31,1.04.64,1.04,1.26,0,.67-.48,1.15-1.31,1.15"/>
        <path class="cls-2" d="M128.11,33.37c-.74,0-1.14-.26-1.14-1.1v-2.05h-.47v-.78h.47v-1.24l.9-.14v1.38h.66l.12.78h-.78v1.92c0,.27.1.42.4.42.1,0,.21,0,.28-.02l.12.77c-.13.03-.32.06-.56.06"/>
        <path class="cls-2" d="M132.73,33.3v-2.77c0-.22-.09-.35-.31-.35-.19,0-.39.12-.58.3v2.82h-.91v-2.77c0-.22-.1-.35-.31-.35-.19,0-.39.12-.58.3v2.82h-.92v-3.86h.76l.06.41c.28-.26.61-.49,1.02-.49s.67.16.8.46c.27-.25.6-.46,1-.46.59,0,.88.34.88.93v3.02h-.92Z"/>
        <path class="cls-2" d="M135.05,31.02h1.09c-.02-.62-.2-.99-.53-.99-.3,0-.51.33-.56.99M135.05,31.63c.06.66.32,1.02.82,1.02.33,0,.68-.12,1.02-.36l.12.72c-.31.21-.77.38-1.27.38-1.05,0-1.62-.72-1.62-2.02,0-1.13.54-2.01,1.49-2.01s1.4.86,1.4,1.93c0,.06,0,.32,0,.34h-1.96Z"/>
        <path class="cls-2" d="M139.38,33.3v-2.75c0-.22-.1-.37-.31-.37s-.42.13-.61.31v2.81h-.93v-3.86h.76l.07.42c.28-.27.62-.5,1.03-.5.6,0,.91.34.91.94v3.01h-.93Z"/>
        <path class="cls-2" d="M142.27,33.37c-.74,0-1.14-.26-1.14-1.1v-2.05h-.47v-.78h.47v-1.24l.9-.14v1.38h.66l.12.78h-.78v1.92c0,.27.1.42.4.42.1,0,.21,0,.28-.02l.12.77c-.13.03-.32.06-.56.06"/>
      </g>
    </g>
  </g>
</svg>