<?xml version="1.0" encoding="UTF-8"?>
<svg id="Layer_2" data-name="Layer 2" xmlns="http://www.w3.org/2000/svg" viewBox="0 0 124.91 36.13">
  <defs>
    <style>
      .cls-1 {
        fill: #004d7d;
      }

      .cls-2 {
        fill: #007db5;
      }
    </style>
  </defs>
  <g id="Layer_1-2" data-name="Layer 1">
    <g>
      <path class="cls-2" d="M73.76,24.96c0,1.32-.23,2.44-.68,3.36-.4.86-.99,1.61-1.73,2.21-.69.55-1.48.97-2.33,1.22-.8.25-1.64.38-2.48.39-.74,0-1.47-.06-2.19-.19-.62-.11-1.24-.25-1.84-.43-.6-.16-1.19-.38-1.75-.66l1.01-3.3c.83.36,1.71.62,2.6.78.51.08,1.03.12,1.55.12,1.11,0,2.01-.32,2.68-.97.67-.64,1.03-1.52,1.01-2.45,0-.77-.21-1.53-.62-2.17-.45-.69-.98-1.32-1.57-1.89-.63-.61-1.32-1.22-2.06-1.82-.74-.61-1.42-1.27-2.06-1.98-.63-.7-1.16-1.49-1.57-2.34-.43-.91-.64-1.91-.62-2.91,0-1.29.23-2.39.68-3.3.41-.84.99-1.59,1.71-2.19.67-.55,1.44-.96,2.27-1.22.76-.25,1.56-.38,2.37-.39.66,0,1.31.06,1.96.17.63.12,1.2.24,1.69.37.54.15,1.07.33,1.59.54l-1.01,3.15c-.36-.1-.74-.21-1.13-.31-.34-.08-.7-.15-1.1-.23-.41-.08-.84-.12-1.26-.12-1.06,0-1.94.27-2.64.81-.7.54-1.05,1.4-1.05,2.56,0,.74.22,1.45.64,2.06.46.66,1,1.28,1.59,1.82.63.6,1.32,1.2,2.06,1.82.74.62,1.42,1.29,2.06,2.01.64.73,1.17,1.55,1.59,2.43.44.95.66,2,.64,3.05Z"/>
      <path class="cls-2" d="M78.84,31.68V5.29h4.04v26.39h-4.04Z"/>
      <path class="cls-2" d="M109.97,31.68h-4.07l-4-19.49h-.08l-3.96,19.49h-4.04l-5.9-26.27,4.23-.19,3.8,20.88h.08l3.84-20.61h4.12l3.88,20.61h.08l3.76-20.88,4.11.19-5.86,26.27Z"/>
      <path class="cls-2" d="M120.87,31.68V5.29h4.04v26.39h-4.04Z"/>
      <path class="cls-1" d="M28.31.57C20.29-1.51,11.82,2.25,7.91,9.4h0c-.07.12-.13.24-.19.36h0s-.04.09-.06.13c-.27.55-.49,1.11-.66,1.7-.05.18-.1.37-.15.56-.14.6-.23,1.21-.28,1.83-.04.35-.07.73-.08,1.12-.03.66-.01,1.32.04,1.98h0c.02.21.04.43.06.65.2,1.72.82,2.99,1.91,3.89,1.09.9,2.31,1.23,3.78,1.07,1.18-.12,2.29-.58,3.21-1.33.52-.42,1.01-.88,1.47-1.37.49-.52.96-1.07,1.39-1.64.94-1.23,1.87-2.57,2.78-3.97.49-.76,1.02-1.5,1.57-2.23.52-.68,1.06-1.33,1.63-1.97,1.19-1.34,2.56-2.5,4.08-3.46,1.56-.99,3.41-1.62,5.49-1.86.32-.04.63-.06.94-.08h.21c.3-.03.59-.04.88-.04h.05c-2.17-2-4.81-3.43-7.66-4.16Z"/>
      <path class="cls-2" d="M.91,10.32c-.21.73-.38,1.47-.5,2.23-.19,1.08-.31,2.18-.38,3.27-.08,1.25-.05,2.51.1,3.76.17,1.4.55,2.76,1.12,4.05.58,1.34,1.41,2.55,2.44,3.58,1.02,1.02,2.33,1.82,3.91,2.38.75.26,1.53.43,2.32.51h0c.11.01.23.02.35.03.99.07,1.99.05,2.98-.07,1.31-.14,2.59-.48,3.79-1.03.37-.17.73-.37,1.07-.58,1.4-.87,2.67-1.93,3.78-3.15,1.12-1.24,2.15-2.56,3.08-3.95.97-1.46,1.93-2.84,2.86-4.08.9-1.23,1.93-2.36,3.08-3.37,1.15-1.01,2.57-1.64,4.09-1.81,2.4-.28,4.29.28,5.63,1.64,1.27,1.3,2.04,3.02,2.28,5.14.1.82.11,1.64.05,2.47-.06.74-.13,1.43-.19,2.05v.04c-.05.38-.11.74-.17,1.1l3.87.76c.15-.61.27-1.24.37-1.9.13-.86.23-1.87.3-3,.07-1.11.04-2.23-.09-3.34-.17-1.33-.54-2.62-1.09-3.83-.58-1.3-1.4-2.48-2.42-3.47-1.02-1.01-2.33-1.79-3.88-2.36-.42-.15-.85-.27-1.28-.35-.84-.17-1.7-.24-2.55-.23-.57,0-1.14.04-1.71.11-.85.09-1.68.27-2.49.54-.38.13-.75.28-1.11.45-.35.17-.69.35-1.02.56-.67.43-1.32.9-1.93,1.42-.61.52-1.18,1.08-1.72,1.68-1.1,1.23-2.11,2.55-3.01,3.94-.94,1.45-1.9,2.83-2.87,4.1-.93,1.24-2,2.37-3.2,3.36-1.22.99-2.71,1.61-4.28,1.78-.23.03-.45.04-.67.05h-.27c-.13,0-.25-.01-.39-.02-.06,0-.13,0-.19,0-.22-.02-.44-.04-.65-.08-.05,0-.09-.02-.13-.03-.17-.03-.34-.07-.5-.11-.07-.02-.14-.04-.21-.07-.14-.04-.27-.09-.4-.14-.08-.03-.15-.06-.23-.09-.13-.05-.25-.11-.38-.18-.07-.04-.14-.07-.22-.11-.13-.07-.26-.15-.39-.23-.06-.04-.12-.07-.18-.11-.18-.13-.36-.26-.54-.4-1.5-1.24-2.39-3-2.64-5.25-.12-.98-.15-1.97-.12-2.95.03-.86.13-1.71.3-2.56.04-.22.07-.43.12-.65.01-.07.03-.13.04-.2.03-.14.06-.29.1-.43,0-.03.01-.07.02-.1l-4.06-.74Z"/>
      <path class="cls-1" d="M40.93,20.3c0-.4-.03-.8-.07-1.2-.19-1.67-.75-2.95-1.7-3.93-.17-.17-.35-.31-.54-.44-.84-.56-1.95-.76-3.37-.6-.28.03-.55.08-.82.15-.13.04-.26.08-.39.13-.51.18-1,.44-1.43.77-.11.08-.22.17-.33.27-1.03.91-1.96,1.93-2.77,3.04-.91,1.22-1.85,2.56-2.8,3.99-.98,1.48-2.08,2.88-3.27,4.2-1.24,1.36-2.65,2.54-4.21,3.51-1.63,1.02-3.55,1.66-5.72,1.92-.34.04-.67.07-.99.09,1.98,1.58,4.27,2.72,6.72,3.35,7.89,2.05,16.13-1.5,20.15-8.37h0c.04-.06.08-.14.13-.22.33-.59.85-1.72,1.17-3.42.2-1.07.29-2.17.27-3.26h0Z"/>
    </g>
  </g>
</svg>