<svg xmlns="http://www.w3.org/2000/svg" width="60" height="60" viewBox="0 0 60 60">
  <g id="Group_246" data-name="Group 246" transform="translate(-0.473 -0.291)">
    <path id="Path_406" data-name="Path 406" d="M8.024,7.024v0Zm5.024,25.122h8.793A14.586,14.586,0,0,1,25.107,27.1H13.049v5.024Zm0,10.049h7.989a14.523,14.523,0,0,1-.4-2.512,16.774,16.774,0,0,1,.025-2.512H13.049v5.024ZM8.024,52.243a4.839,4.839,0,0,1-3.542-1.482A4.839,4.839,0,0,1,3,47.219V7.024A4.839,4.839,0,0,1,4.482,3.482,4.839,4.839,0,0,1,8.024,2h20.1L43.194,17.073v6.28a14.02,14.02,0,0,0-2.462-.779,22.177,22.177,0,0,0-2.588-.4V19.585H25.584V7.024H8V47.219H23.147a20.3,20.3,0,0,0,2.261,2.788,14.76,14.76,0,0,0,2.763,2.236Zm28.89-7.536a6.324,6.324,0,0,0,4.472-10.777,6.324,6.324,0,0,0-8.943,8.943A6.066,6.066,0,0,0,36.914,44.707ZM49.726,54.755l-6.783-6.783A10.643,10.643,0,0,1,40.079,49.3a11.211,11.211,0,0,1-3.165.452A10.979,10.979,0,0,1,28.9,46.465a10.842,10.842,0,0,1-3.291-8.014A10.979,10.979,0,0,1,28.9,30.438a10.842,10.842,0,0,1,8.014-3.291,10.979,10.979,0,0,1,8.014,3.291,10.842,10.842,0,0,1,3.291,8.014,11.211,11.211,0,0,1-.452,3.165,9.932,9.932,0,0,1-1.331,2.864l6.783,6.783L49.7,54.78Z" transform="translate(4.536 3.024)" fill="#fff"/>
    <rect id="Rectangle_61" data-name="Rectangle 61" width="60" height="60" transform="translate(0.473 0.291)" fill="none"/>
  </g>
</svg>
