<svg xmlns="http://www.w3.org/2000/svg" width="60" height="60" viewBox="0 0 60 60">
  <g id="Group_245" data-name="Group 245" transform="translate(-0.008 -0.291)">
    <path id="Path_408" data-name="Path 408" d="M25.865,33.4,43.451,22.1l-17.585-11.3Zm-8.793,8.793a5.061,5.061,0,0,1-5.024-5.024V7.024a4.839,4.839,0,0,1,1.482-3.542A4.839,4.839,0,0,1,17.073,2H47.219a4.839,4.839,0,0,1,3.542,1.482,4.839,4.839,0,0,1,1.482,3.542V37.17a5.061,5.061,0,0,1-5.024,5.024Zm0-5.024H47.219V7.024H17.073ZM7.024,52.243a4.839,4.839,0,0,1-3.542-1.482A4.839,4.839,0,0,1,2,47.219V12.049H7.024v35.17h35.17v5.024ZM17.073,7.024v0Z" transform="translate(3.024 3.024)" fill="#fff"/>
    <rect id="Rectangle_63" data-name="Rectangle 63" width="60" height="60" transform="translate(0.008 0.291)" fill="none"/>
  </g>
</svg>
