<?xml version="1.0" encoding="UTF-8"?>
<svg id="Layer_2" data-name="Layer 2" xmlns="http://www.w3.org/2000/svg" xmlns:xlink="http://www.w3.org/1999/xlink" viewBox="0 0 170.25 33.38">
  <defs>
    <style>
      .cls-1 {
        fill: none;
      }

      .cls-2 {
        mask: url(#mask);
      }

      .cls-3 {
        fill: url(#radial-gradient);
      }

      .cls-4 {
        fill: #fff;
      }

      .cls-5 {
        fill: #042242;
      }

      .cls-6 {
        clip-path: url(#clippath);
      }
    </style>
    <clipPath id="clippath">
      <rect class="cls-1" width="170.25" height="33.38"/>
    </clipPath>
    <mask id="mask" x="0" y="0" width="33.38" height="33.39" maskUnits="userSpaceOnUse">
      <g id="mask0_4236_3312" data-name="mask0 4236 3312">
        <path class="cls-4" d="M20.45,27.3c2.19-.03,4.27-.35,6.11-.97.47-.16.9-.33,1.33-.51-.51,1.25-1.26,2.29-2.24,3.07-1.94,1.42-4.22,2.4-6.7,2.78.62-1.07,1.12-2.59,1.5-4.36M10.14,30.34s-.1-.07-.15-.1c-.86-.42-1.21-2.34-.76-5.28,1.66.75,3.46,1.33,5.36,1.74,1.44.31,2.87.49,4.27.57-.68,2.98-1.56,4.55-2.15,4.55-.04,0-.07,0-.11.01-2.31-.01-4.5-.55-6.46-1.49M2.14,20.84c-.13-.51-.22-1.02-.25-1.54.51.74,1.15,1.46,1.9,2.16,1.13,1.05,2.48,1.99,3.99,2.79-.31,1.72-.39,3.27-.2,4.53-2.59-1.96-4.53-4.73-5.44-7.93M21.43,16.66c0-.61,0-1.21-.03-1.82,1.93-.13,3.72-.63,5.19-1.47,1.35,2.69,2.09,5.51,2.08,8.18,0,.78-.07,1.51-.19,2.21-.7.43-1.5.8-2.4,1.1-1.6.54-3.41.83-5.32.88.46-2.76.68-5.96.68-9.08M14.91,25.18c-1.92-.41-3.74-1.02-5.39-1.8.54-2.43,1.54-5.38,3.14-8.65.23-.47.47-.94.71-1.4,1.11.5,2.33.9,3.6,1.17.97.2,1.93.32,2.88.35.01.59.03,1.18.03,1.8,0,3.66-.29,6.69-.71,9.06-1.39-.06-2.82-.24-4.26-.55M4.84,20.31c-1.32-1.22-2.23-2.51-2.69-3.79.37-1.44,1.07-2.88,2.11-4.26.99-1.31,2.22-2.49,3.63-3.5.41.73.98,1.45,1.71,2.14.69.65,1.49,1.23,2.39,1.75-.25.47-.49.94-.72,1.42-1.37,2.82-2.5,5.85-3.16,8.6-1.23-.69-2.33-1.48-3.26-2.35M20.38,5.88c1.76,1.31,3.38,3.01,4.74,4.99.25.37.5.76.73,1.14-1.24.72-2.81,1.14-4.5,1.27-.14-2.68-.46-5.26-.97-7.4M17.3,12.99c-1.12-.24-2.19-.59-3.17-1.02,1.44-2.53,3.03-4.74,4.6-6.37.49,1.92.9,4.5,1.07,7.7-.82-.04-1.66-.13-2.49-.32M10.66,9.76c-.64-.6-1.13-1.23-1.46-1.85,1.45-.87,3.07-1.59,4.78-2.11,1.02-.3,2.05-.54,3.08-.69-1.49,1.66-2.97,3.79-4.33,6.17-.78-.45-1.47-.96-2.07-1.52M7.32,4.81c-.02.08-.04.16-.06.24-.16.73-.14,1.48.05,2.23-1.67,1.15-3.12,2.52-4.28,4.05-.35.47-.67.94-.95,1.42.86-3.18,2.73-5.94,5.25-7.94M8.78,5.37c.17-.8.66-1.52,1.4-2.12,1.81-.54,3.92-.41,6.14.4-.93.16-1.87.38-2.78.66-1.71.51-3.33,1.22-4.81,2.07-.04-.34-.02-.68.05-1.01ZM21.38,3.33c.54-.35,1.02-.59,1.43-.68.78.31,1.55.71,2.28,1.21-1.18-.3-2.42-.47-3.71-.54ZM18.76,1.66c.63.07,1.3.18,1.99.34-.43.23-.88.52-1.34.87-.2-.46-.42-.86-.66-1.21ZM17.08,2.28c-.7-.27-1.4-.48-2.08-.63.55-.06,1.11-.1,1.67-.1.26,0,.59.32.93.94-.17-.07-.35-.15-.51-.21M0,16.69c0,1.59.23,3.12.64,4.57.03.1.05.2.08.3,0,.02.01.04.02.06,2.11,6.81,8.46,11.77,15.95,11.77,3.47,0,6.69-1.06,9.36-2.88.03-.01.06-.03.08-.04.16-.11.31-.22.46-.34,3.07-2.27,5.34-5.56,6.29-9.37.06-.18.1-.35.14-.54,0-.04.01-.08.01-.13.23-1.09.35-2.23.35-3.39,0-2.26-.44-4.44-1.31-6.5-.17-.39-.62-.58-1.02-.42-.39.17-.58.62-.42,1.01.79,1.87,1.19,3.85,1.19,5.89,0,1.25-.16,2.47-.44,3.64-.23.73-.63,1.42-1.19,2.03.01-.26.02-.53.02-.8,0-2.98-.82-6.13-2.35-9.08,1.12-.96,1.83-2.15,2.08-3.48.08-.42-.2-.82-.62-.9-.42-.08-.82.2-.9.62-.16.88-.62,1.68-1.33,2.37-.23-.37-.45-.73-.7-1.09-1.36-1.99-2.98-3.73-4.75-5.1,2.34.16,4.5.72,6.24,1.69.27.16.63.15.89-.06.33-.27.37-.76.1-1.09C26.38,1.93,22.05,0,16.69,0,7.49,0,0,7.49,0,16.69Z"/>
      </g>
    </mask>
    <radialGradient id="radial-gradient" cx="-836.89" cy="924.47" fx="-836.89" fy="924.47" r=".77" gradientTransform="translate(30126.57 33251.41) scale(35.96 -35.96)" gradientUnits="userSpaceOnUse">
      <stop offset="0" stop-color="#fff"/>
      <stop offset=".06" stop-color="#e4f5fb"/>
      <stop offset=".18" stop-color="#a7e0f8"/>
      <stop offset=".36" stop-color="#52c0f1"/>
      <stop offset=".54" stop-color="#139cea"/>
      <stop offset="1" stop-color="#042242"/>
    </radialGradient>
  </defs>
  <g id="Layer_1-2" data-name="Layer 1">
    <g class="cls-6">
      <g>
        <g class="cls-2">
          <path class="cls-3" d="M33.38,0H0v33.38h33.38V0Z"/>
        </g>
        <path class="cls-5" d="M166.42,11.81c2.47,0,3.83,1.19,3.83,3.36,0,2.04-1.34,3.27-3.58,3.27h-1.57v3.13h-2.08v-9.76h3.4ZM165.1,16.74h1.24c1.2,0,1.82-.53,1.82-1.57s-.67-1.64-1.88-1.64h-1.18v3.21ZM159.19,17.66c0,1.43-.55,2.13-1.68,2.13s-1.72-.72-1.72-2.13v-5.85h-2.08v5.71c0,1.4.35,2.46,1.04,3.15.64.65,1.57.97,2.76.97,1.71,0,3.76-.72,3.76-4.13v-5.72h-2.08v5.85h0ZM148.05,11.73c2.11,0,4.36,1.3,4.36,4.98s-2.26,4.95-4.36,4.95-4.38-1.3-4.38-4.95,2.26-4.98,4.38-4.98ZM148.05,19.83c.82,0,2.21-.41,2.21-3.13s-1.39-3.13-2.21-3.13c-1.44,0-2.23,1.11-2.23,3.13s.79,3.13,2.23,3.13ZM141.53,18.62c.35.7.64,1.3,1.32,1.3h.49v1.61l-.07.02s-.37.1-1.01.1c-1.64,0-2.14-1.13-2.59-2.13-.37-.82-.68-1.52-1.54-1.52h-.92v3.58h-2.08v-9.76h3.46c2.53,0,3.71.99,3.71,3.1,0,1.31-.79,2.11-1.57,2.47.35.34.57.79.79,1.23M137.22,16.37h1.16c1.16,0,1.87-.54,1.87-1.41s-.63-1.43-1.72-1.43h-1.31v2.84h0ZM129.61,18h2.14v.11c0,.63-.23,1.69-1.72,1.69-1.41,0-2.26-1.16-2.26-3.1s.8-3.13,2.21-3.13c1.67,0,1.73,1.69,1.73,1.76v.11l1.95-.3v-.08c0-.7-.63-3.33-3.7-3.33-2.76,0-4.33,1.81-4.33,4.98s1.63,4.95,4.36,4.95,3.72-1.92,3.72-3.55v-1.7h-4.1v1.6h0ZM123.38,11.81h-2.47l-3.23,4.39v-4.39h-2.11v9.76h2.11v-4.49l3.31,4.49h2.5l-3.78-4.92,3.67-4.84h0ZM111.63,17.84l-3.41-6.03h-2.11v9.76h2.08v-5.82l3.4,5.82h2.12v-9.76h-2.08v6.03ZM101.99,11.88l3.56,9.7h-2.16l-.83-2.39h-3.25l-.8,2.39h-2.18l3.58-9.76h2.07l.02.06ZM100.94,14.47l-1.06,3.08h2.14l-1.08-3.08ZM94.39,16.42c.75.22,1.73.9,1.73,2.37,0,1.76-1.25,2.78-3.43,2.78h-4.12v-9.76h3.72c2.11,0,3.19.88,3.19,2.62,0,1.35-.61,1.83-1.09,1.99M92.08,15.8c.87,0,1.27-.37,1.27-1.15s-.51-1.12-1.53-1.12h-1.16v2.26h1.42ZM90.66,19.85h1.63c1.06,0,1.56-.4,1.56-1.25,0-1.05-.87-1.27-1.6-1.27h-1.59v2.52ZM80.01,11.81c3.04,0,4.85,1.88,4.85,5.05s-1.62,4.72-4.44,4.72h-3.31v-9.76h2.9ZM79.2,19.85h1.21c1.49,0,2.39-1.13,2.39-3.02,0-2.19-.94-3.29-2.81-3.29h-.79v6.31ZM71.92,11.81h-2.08v9.76h6.3v-1.73h-4.22v-8.04ZM67.05,18.62c.35.7.64,1.3,1.33,1.3h.49v1.61l-.07.02s-.37.1-1.01.1c-1.64,0-2.14-1.13-2.59-2.13-.37-.82-.68-1.52-1.54-1.52h-.92v3.58h-2.08v-9.76h3.46c2.52,0,3.71.99,3.71,3.1,0,1.31-.79,2.11-1.57,2.47.35.34.57.79.79,1.23M62.75,16.37h1.16c1.16,0,1.87-.54,1.87-1.41s-.63-1.43-1.72-1.43h-1.31v2.84ZM55.12,11.73c2.11,0,4.36,1.3,4.36,4.98s-2.26,4.95-4.36,4.95-4.37-1.3-4.37-4.95,2.26-4.98,4.37-4.98ZM55.12,19.83c.82,0,2.21-.41,2.21-3.13s-1.39-3.13-2.21-3.13c-1.44,0-2.23,1.11-2.23,3.13s.79,3.13,2.23,3.13ZM48.1,11.81h2.35l-2.81,9.76h-2.35l-1.71-6.12-1.73,6.12h-2.35l-2.81-9.76h2.42l1.64,7.12,1.97-7.12h1.75l1.9,7.12,1.71-7.12h0Z"/>
      </g>
    </g>
  </g>
</svg>